<svg width="1289" height="235" viewBox="0 0 1289 235" fill="none" xmlns="http://www.w3.org/2000/svg">
<g filter="url(#filter0_d_557_62)">
<path fill-rule="evenodd" clip-rule="evenodd" d="M4 116.239L57.0414 142.505C111.084 167.761 217.166 220.292 324.25 226.353C431.334 232.415 537.416 194.026 644.5 187.965C751.584 180.893 857.666 207.159 964.75 207.159C1071.83 207.159 1177.92 180.893 1231.96 167.761L1285 155.638V0.0644531H1231.96C1177.92 0.0644531 1071.83 0.0644531 964.75 0.0644531C857.666 0.0644531 751.584 0.0644531 644.5 0.0644531C537.416 0.0644531 431.334 0.0644531 324.25 0.0644531C217.166 0.0644531 111.084 0.0644531 57.0414 0.0644531H4V116.239Z" fill="#FEB581"/>
</g>
<defs>
<filter id="filter0_d_557_62" x="0" y="0.0644531" width="1289" height="234.936" filterUnits="userSpaceOnUse" color-interpolation-filters="sRGB">
<feFlood flood-opacity="0" result="BackgroundImageFix"/>
<feColorMatrix in="SourceAlpha" type="matrix" values="0 0 0 0 0 0 0 0 0 0 0 0 0 0 0 0 0 0 127 0" result="hardAlpha"/>
<feOffset dy="4"/>
<feGaussianBlur stdDeviation="2"/>
<feComposite in2="hardAlpha" operator="out"/>
<feColorMatrix type="matrix" values="0 0 0 0 0 0 0 0 0 0 0 0 0 0 0 0 0 0 0.25 0"/>
<feBlend mode="normal" in2="BackgroundImageFix" result="effect1_dropShadow_557_62"/>
<feBlend mode="normal" in="SourceGraphic" in2="effect1_dropShadow_557_62" result="shape"/>
</filter>
</defs>
</svg>
